# xmcd
#
# Track frame offsets: 
#        150
#        21964
#        43646
#        61800
#        84816
#        98271
#        119640
#        137839
#        151549
#        168414
#        192956
#        214492
#        230901
#        249821
#        278640
#
# Disc length: 3958 seconds
#
# Revision: 0
# Processed by: cddbd v1.5.2PL0 Copyright (c) Steve Scherf et al.
# Submitted via: ExactAudioCopy v1.0b3
#
DISCID=c00f740f
DTITLE=Paul Rodgers - Muddy Water Blues A Tribute to Muddy Waters
DYEAR=1993
DGENRE=Blues
TTITLE0=Muddy Water Blues Acoustic - Buddy Guy
TTITLE1=Lousiana Blues - Trevor Rabin
TTITLE2=I Cant Be Satisfied - Brian Setzer
TTITLE3=Rollin Stone - Jeff Beck
TTITLE4=Good Morning Little School Girl Pt 1 - Jeff Beck
TTITLE5=Im Your Hoochie Coochie Man - Steve Miller
TTITLE6=Shes Alright - Trevor Rabin
TTITLE7=Standing Around Crying - David Gilmour
TTITLE8=The Hunter - Slash
TTITLE9=She Moves Me - Gary Moore
TTITLE10=Im Ready - Brian May
TTITLE11=I Just Want to Make Love to You - Jeff Beck
TTITLE12=Born Under a Bad Sign - Neal Schon
TTITLE13=Good Morning Little School Girl Pt 2 - Richie Sambora
TTITLE14=Muddy Water Blues Electric - Neal Schon
EXTD=
EXTT0=
EXTT1=
EXTT2=
EXTT3=
EXTT4=
EXTT5=
EXTT6=
EXTT7=
EXTT8=
EXTT9=
EXTT10=
EXTT11=
EXTT12=
EXTT13=
EXTT14=
PLAYORDER=
